<?xml version="1.0" encoding="utf-8"?>
<!-- Generator: Adobe Illustrator 19.2.1, SVG Export Plug-In . SVG Version: 6.00 Build 0)  -->
<svg version="1.1" id="Layer_1" xmlns="http://www.w3.org/2000/svg" xmlns:xlink="http://www.w3.org/1999/xlink" x="0px" y="0px"
	 viewBox="0 0 60 60" style="enable-background:new 0 0 60 60;" xml:space="preserve">
<path d="M52.4541016,5.4619141c-0.1445312-0.1411133-0.3515625-0.2285156-0.5439453-0.2114258
	C14.6835938,6.3398438,7.9633789,9.9477539,7.6958008,10.1005859c-0.2338867,0.1337891-0.3779297,0.3823242-0.3779297,0.6513672
	v23.4853516c0,0.2207031,0.0966797,0.4296875,0.2646484,0.5722656c0.3029785,0.2564697,4.3798218,3.6231689,12.7850342,6.6784668
	l-0.7382202,2.9630737c-2.6795654-1.1149902-3.8235474-2.1431885-4.4584351-2.7157593
	c-0.3081055-0.2783203-0.7817383-0.2529297-1.059082,0.0546875c-0.277832,0.3066406-0.253418,0.78125,0.0541992,1.0585938
	c0.6882935,0.6210938,1.9343872,1.7410278,4.8022461,2.9431152c-2.0274048,1.3278809-2.9694214,2.8894653-2.5981445,4.3820801
	C17.0439453,52.8828125,21.6938477,54.5,28.809082,54.5h8.9631958c0.1932373,0.4405518,0.6307983,0.75,1.1427612,0.75h0.9375h0.875
	h1.5V54.5h2.3125c0.2763672,0,0.5-0.2236328,0.5-0.5s-0.2236328-0.5-0.5-0.5h-2.3125v-0.75h-1.5h-0.875h-0.9375
	c-0.5119629,0-0.9495239,0.3094482-1.1427612,0.75H28.809082c-7.8100586,0-11.059082-1.921875-11.4682617-3.5683594
	c-0.2941284-1.1812744,0.7323608-2.5097046,2.802002-3.6787109c3.0872192,1.1383667,7.7134399,2.3024902,14.7702637,3.1513672
	c0.0302734,0.0039062,0.0605469,0.0058594,0.0908203,0.0058594c0.3740234,0,0.6982422-0.2792969,0.7431641-0.6601562
	c0.0498047-0.4111328-0.2431641-0.7851562-0.6542969-0.8349609c-6.005249-0.7224121-10.1723633-1.6600952-13.1019287-2.6022949
	l0.7501831-3.0109253c7.0584717,2.2824097,16.6973877,4.2001343,29.1906128,4.2001343c0.4140625,0,0.75-0.3359375,0.75-0.75V6
	C52.6816406,5.7973633,52.5996094,5.6030273,52.4541016,5.4619141z M51.1816406,45
	c-11.9471436-0.0768433-21.241272-1.9833984-28.0637207-4.2109985l0.994873-3.993103
	c0.0249023-0.0986328,0.0371094-0.2001953,0.0371094-0.3017578v-4.1806641c0-0.6904297-0.5595703-1.25-1.25-1.25
	s-1.25,0.5595703-1.25,1.25v4.0273438l-0.9041138,3.6290283c-7.0214233-2.5754395-10.9179688-5.3283081-11.9279175-6.0968018
	V11.2431641c1.8442383-0.7089844,11.0078125-3.5117188,42.3637695-4.4702148V45z"/>
</svg>
