<?xml version="1.0" encoding="utf-8"?>
<!-- Generator: Adobe Illustrator 19.2.1, SVG Export Plug-In . SVG Version: 6.00 Build 0)  -->
<svg version="1.1" id="Layer_1" xmlns="http://www.w3.org/2000/svg" xmlns:xlink="http://www.w3.org/1999/xlink" x="0px" y="0px"
	 viewBox="0 0 60 60" style="enable-background:new 0 0 60 60;" xml:space="preserve">
<g>
	<g>
		<path d="M23.5117188,48.5644531v5.65625h-0.9296875v-4.6953125l-1.234375,0.4296875l-0.265625-0.765625l1.625-0.625H23.5117188z"
			/>
		<path d="M25.421875,53.6113281c-0.3256836-0.4736328-0.4882812-1.2138672-0.4882812-2.21875
			c0-1.0107422,0.1611328-1.7509766,0.484375-2.2226562c0.3227539-0.4716797,0.8149414-0.7070312,1.4765625-0.7070312
			c0.6665039,0,1.1625977,0.2353516,1.4882812,0.7070312c0.3251953,0.4716797,0.4882812,1.2119141,0.4882812,2.2226562
			c0,1.0048828-0.1630859,1.7451172-0.4882812,2.21875c-0.3256836,0.4736328-0.8193359,0.7109375-1.4804688,0.7109375
			C26.2407227,54.3222656,25.7470703,54.0849609,25.421875,53.6113281z M27.6757812,52.9902344
			c0.1611328-0.3359375,0.2421875-0.8681641,0.2421875-1.5976562s-0.0820312-1.2617188-0.2460938-1.5976562
			s-0.4233398-0.5039062-0.7773438-0.5039062c-0.3491211,0-0.6044922,0.1679688-0.765625,0.5039062
			c-0.1616211,0.3359375-0.2421875,0.8681641-0.2421875,1.5976562s0.0805664,1.2617188,0.2421875,1.5976562
			c0.1611328,0.3359375,0.4189453,0.5039062,0.7734375,0.5039062
			C27.2563477,53.4941406,27.5141602,53.3261719,27.6757812,52.9902344z"/>
		<path d="M30.3125,53.6113281c-0.3256836-0.4736328-0.4882812-1.2138672-0.4882812-2.21875
			c0-1.0107422,0.1611328-1.7509766,0.484375-2.2226562c0.3227539-0.4716797,0.8144531-0.7070312,1.4765625-0.7070312
			c0.6660156,0,1.1621094,0.2353516,1.4882812,0.7070312c0.3251953,0.4716797,0.4882812,1.2119141,0.4882812,2.2226562
			c0,1.0048828-0.1630859,1.7451172-0.4882812,2.21875c-0.3261719,0.4736328-0.8193359,0.7109375-1.4804688,0.7109375
			C31.1308594,54.3222656,30.6376953,54.0849609,30.3125,53.6113281z M32.5664062,52.9902344
			c0.1611328-0.3359375,0.2421875-0.8681641,0.2421875-1.5976562s-0.0820312-1.2617188-0.2460938-1.5976562
			s-0.4238281-0.5039062-0.7773438-0.5039062c-0.3496094,0-0.6044922,0.1679688-0.765625,0.5039062
			c-0.1616211,0.3359375-0.2421875,0.8681641-0.2421875,1.5976562s0.0805664,1.2617188,0.2421875,1.5976562
			c0.1611328,0.3359375,0.4189453,0.5039062,0.7734375,0.5039062
			C32.1464844,53.4941406,32.4042969,53.3261719,32.5664062,52.9902344z"/>
		<path d="M35.203125,53.6113281c-0.3261719-0.4736328-0.4882812-1.2138672-0.4882812-2.21875
			c0-1.0107422,0.1611328-1.7509766,0.484375-2.2226562c0.3222656-0.4716797,0.8144531-0.7070312,1.4765625-0.7070312
			c0.6660156,0,1.1621094,0.2353516,1.4882812,0.7070312c0.3251953,0.4716797,0.4882812,1.2119141,0.4882812,2.2226562
			c0,1.0048828-0.1630859,1.7451172-0.4882812,2.21875c-0.3261719,0.4736328-0.8193359,0.7109375-1.4804688,0.7109375
			C36.0214844,54.3222656,35.5283203,54.0849609,35.203125,53.6113281z M37.4570312,52.9902344
			c0.1611328-0.3359375,0.2421875-0.8681641,0.2421875-1.5976562s-0.0820312-1.2617188-0.2460938-1.5976562
			s-0.4238281-0.5039062-0.7773438-0.5039062c-0.3496094,0-0.6044922,0.1679688-0.765625,0.5039062
			c-0.1621094,0.3359375-0.2421875,0.8681641-0.2421875,1.5976562s0.0800781,1.2617188,0.2421875,1.5976562
			c0.1611328,0.3359375,0.4189453,0.5039062,0.7734375,0.5039062
			C37.0371094,53.4941406,37.2949219,53.3261719,37.4570312,52.9902344z"/>
	</g>
	<g>
		<path d="M25.2651367,10.109375c-0.4140625,0-0.75-0.3359375-0.75-0.75V3.75c0-0.4140625,0.3359375-0.75,0.75-0.75
			s0.75,0.3359375,0.75,0.75v5.609375C26.0151367,9.7734375,25.6791992,10.109375,25.2651367,10.109375z"/>
		<path d="M25.2651367,43c-0.4140625,0-0.75-0.3359375-0.75-0.75v-5.609375c0-0.4140625,0.3359375-0.75,0.75-0.75
			s0.75,0.3359375,0.75,0.75V42.25C26.0151367,42.6640625,25.6791992,43,25.2651367,43z"/>
		<path d="M16.2797852,14.2329102c-0.1918945,0-0.3837891-0.0732422-0.5302734-0.2197266l-3.9663086-3.9663086
			c-0.2929688-0.2929688-0.2929688-0.7675781,0-1.0605469s0.7675781-0.2929688,1.0605469,0l3.9663086,3.9663086
			c0.2929688,0.2929688,0.2929688,0.7675781,0,1.0605469C16.6635742,14.159668,16.4716797,14.2329102,16.2797852,14.2329102z"/>
		<path d="M12.2719727,23.7260742h-5.609375c-0.4140625,0-0.75-0.3359375-0.75-0.75s0.3359375-0.75,0.75-0.75h5.609375
			c0.4140625,0,0.75,0.3359375,0.75,0.75S12.6860352,23.7260742,12.2719727,23.7260742z"/>
		<path d="M12.1743164,37.2548828c-0.1918945,0-0.3837891-0.0732422-0.5302734-0.2197266
			c-0.2929688-0.2929688-0.2929688-0.7675781,0-1.0605469l3.9663086-3.9658203c0.2929688-0.2929688,0.7675781-0.2929688,1.0605469,0
			s0.2929688,0.7675781,0,1.0605469l-3.9663086,3.9658203C12.5581055,37.1816406,12.3662109,37.2548828,12.1743164,37.2548828z"/>
		<g>
			<path d="M42.3857422,11.2749023c-3.382019,0-6.4241943,1.4508057-8.562439,3.7525635
				c0.3643799,0.3448486,0.7074585,0.7106934,1.0218506,1.102356c1.8674316-2.0549316,4.5516968-3.3549194,7.5405884-3.3549194
				c5.625,0,10.2011719,4.5761719,10.2011719,10.2011719s-4.5761719,10.2016602-10.2011719,10.2016602
				c-2.9889526,0-5.6731567-1.3001709-7.5405884-3.3552246c-0.3143921,0.3916626-0.6574097,0.7575684-1.0218506,1.102356
				c2.1382446,2.3018799,5.1803589,3.7528687,8.562439,3.7528687c6.4521484,0,11.7011719-5.2495117,11.7011719-11.7016602
				S48.8378906,11.2749023,42.3857422,11.2749023z"/>
			<path d="M34.8451538,29.8225098c1.5056763-1.8757324,2.4112549-4.2539062,2.4112549-6.8463745
				c0-2.5924072-0.9056396-4.9705811-2.4112549-6.8463135c-1.6470337,1.8123169-2.6605835,4.210144-2.6605835,6.8462524
				C32.1845703,25.6121216,33.1981812,28.0100098,34.8451538,29.8225098z"/>
			<path d="M33.8233032,15.0274658c-1.9621582-1.8565063-4.6036377-3.0025635-7.5181274-3.0025635
				c-6.0482178,0-10.9512329,4.9030762-10.9512329,10.9512329c0,6.0482178,4.9030151,10.9512329,10.9512329,10.9512329
				c2.9144287,0,5.5559692-1.1459961,7.5181274-3.0025024c-1.940979-2.0895386-3.1387329-4.8787231-3.1387329-7.9487915
				C30.6845703,19.9059448,31.8823242,17.1168823,33.8233032,15.0274658z"/>
		</g>
	</g>
</g>
</svg>
