<?xml version="1.0" encoding="utf-8"?>
<!-- Generator: Adobe Illustrator 19.2.1, SVG Export Plug-In . SVG Version: 6.00 Build 0)  -->
<svg version="1.1" id="Layer_1" xmlns="http://www.w3.org/2000/svg" xmlns:xlink="http://www.w3.org/1999/xlink" x="0px" y="0px"
	 viewBox="0 0 60 60" style="enable-background:new 0 0 60 60;" xml:space="preserve">
<g>
	<path d="M37.8134766,26.1564331l7.4558105-4.9227295c0.5857544,0.6149902,1.3388062,1.0415039,2.1887207,1.2155151
		c0.2832031,0.0581055,0.5683594,0.0869141,0.8505859,0.0869141c0.8144531,0,1.6113281-0.237793,2.3066406-0.6967773
		c0.9365234-0.6186523,1.5761719-1.5644531,1.8017578-2.6640625c0.2246094-1.0996094,0.0078125-2.2207031-0.6103516-3.1572266
		c-1.2783203-1.9331055-3.8896484-2.4672852-5.8212891-1.190918c-0.9365234,0.6186523-1.5761719,1.5644531-1.8007812,2.6640625
		c-0.173645,0.8499756-0.0771484,1.7104492,0.2582397,2.4907227l-6.6293335,4.3770752v-3.1397705
		c0-2.0678711-1.6826172-3.75-3.75-3.75h-2.9140625v-6.1427612c1.9586182-0.3557129,3.4511719-2.0657349,3.4511719-4.1253052
		C34.6005859,4.8847656,32.7158203,3,30.3994141,3s-4.2011719,1.8847656-4.2011719,4.2011719
		c0,2.0595703,1.4925537,3.7695923,3.4511719,4.1253052v6.1427612h-2.9140625c-2.0678711,0-3.75,1.6821289-3.75,3.75v3.1397095
		l-6.6289062-4.3770142c0.3353882-0.7802734,0.4318237-1.6407471,0.2578125-2.4907227
		c-0.2246094-1.0996094-0.8642578-2.0454102-1.8007812-2.6640625c-1.9316406-1.2749023-4.5444336-0.7416992-5.8212891,1.1914062
		c-0.6181641,0.9360352-0.8349609,2.0571289-0.6098633,3.1567383s0.8647461,2.0454102,1.8012695,2.6640625
		c0.6953125,0.4589844,1.4921875,0.6967773,2.3061523,0.6967773c0.2827148,0,0.5673828-0.0288086,0.8510742-0.0869141
		c0.8496094-0.1740112,1.6029053-0.600647,2.1890259-1.2156372l7.4555054,4.9228516v6.2813721l-6.9430542,4.2029419
		c-0.5615845-0.6375122-1.2979126-1.0932617-2.1404419-1.3009033c-1.0893555-0.2666016-2.2182617-0.0947266-3.1782227,0.4863281
		s-1.6367188,1.5009766-1.9042969,2.5908203c-0.2680664,1.0888672-0.0957031,2.2177734,0.4853516,3.1787109
		C9.8857422,42.5556641,10.8061523,43.2314453,11.8959961,43.5c0.3349609,0.0820312,0.6738281,0.1230469,1.0102539,0.1230469
		c0.7578125,0,1.503418-0.2070312,2.168457-0.609375c0.9599609-0.5810547,1.6362305-1.5009766,1.9038086-2.5908203
		c0.2072144-0.8417969,0.1446533-1.7053833-0.1598511-2.4989014l6.166687-3.7329712V53.25c0,2.0673828,1.6821289,3.75,3.75,3.75
		h7.328125c2.0673828,0,3.75-1.6826172,3.75-3.75V34.1912231l6.1690063,3.734436
		c-0.710022,1.8603516-0.0197144,4.022522,1.743103,5.0880127c0.6640625,0.4023438,1.4091797,0.609375,2.1669922,0.609375
		c0.3369141,0,0.6748047-0.0410156,1.0107422-0.1230469c1.0888672-0.2685547,2.0097656-0.9443359,2.5908203-1.9042969
		s0.7539062-2.0888672,0.4863281-3.1787109c-0.2685547-1.0898438-0.9443359-2.0097656-1.9042969-2.5908203
		c-1.7624512-1.0687866-3.9985352-0.6760864-5.3170166,0.8158569L37.8134766,32.4375V26.1564331z M45.6542969,17.7919922
		c0.1445312-0.7070312,0.5556641-1.3154297,1.1572266-1.7128906c0.4570312-0.3017578,0.9736328-0.4462891,1.484375-0.4462891
		c0.8779297,0,1.7402344,0.4262695,2.2587891,1.2124023c0.3974609,0.6015625,0.5371094,1.3227539,0.3925781,2.0292969
		c-0.1445312,0.7070312-0.5556641,1.3154297-1.1582031,1.7128906c-0.6035156,0.3974609-1.3222656,0.534668-2.0302734,0.3925781
		c-0.7060547-0.1450195-1.3144531-0.5561523-1.7119141-1.1586914
		C45.6494141,19.2197266,45.5097656,18.4985352,45.6542969,17.7919922z M27.6982422,7.2011719
		C27.6982422,5.7119141,28.9101562,4.5,30.3994141,4.5s2.7011719,1.2119141,2.7011719,2.7011719
		s-1.2119141,2.7011719-2.7011719,2.7011719S27.6982422,8.6904297,27.6982422,7.2011719z M13.0400391,20.9799805
		c-0.7070312,0.144043-1.4282227,0.0053711-2.0302734-0.3925781c-0.6020508-0.3974609-1.0131836-1.0058594-1.1582031-1.7128906
		c-0.1445312-0.706543-0.0048828-1.4277344,0.3925781-2.0292969c0.519043-0.7861328,1.3808594-1.2124023,2.2587891-1.2124023
		c0.5107422,0,1.0268555,0.1445312,1.484375,0.4462891c0.6015625,0.3974609,1.0131836,1.0058594,1.1577148,1.7128906
		c0.1445312,0.706543,0.0048828,1.4277344-0.3925781,2.0297852S13.746582,20.8349609,13.0400391,20.9799805z M15.5219727,40.0654297
		c-0.171875,0.7001953-0.6069336,1.2919922-1.2241211,1.6650391h-0.0004883
		c-0.6171875,0.3740234-1.3442383,0.4833984-2.043457,0.3125c-0.7006836-0.171875-1.2924805-0.6074219-1.6660156-1.2246094
		s-0.484375-1.3427734-0.3120117-2.0439453c0.171875-0.7001953,0.6069336-1.2919922,1.2246094-1.6650391
		c0.4272461-0.2587891,0.9067383-0.3916016,1.394043-0.3916016c0.2163086,0,0.434082,0.0263672,0.6494141,0.0791016
		c0.7006836,0.171875,1.2924805,0.6074219,1.6660156,1.2246094S15.6943359,39.3642578,15.5219727,40.0654297z
		 M47.9042969,36.7197266c0.4765625,0,0.9589844,0.1259766,1.3955078,0.3896484
		c0.6171875,0.3730469,1.0517578,0.9648438,1.2236328,1.6650391c0.171875,0.7011719,0.0615234,1.4267578-0.3125,2.0439453
		s-0.9658203,1.0527344-1.6660156,1.2246094c-0.7041016,0.1708984-1.4277344,0.0605469-2.0429688-0.3125h-0.0009766
		c-1.2734375-0.7705078-1.6826172-2.4345703-0.9121094-3.7089844
		C46.0957031,37.1835938,46.9892578,36.7197266,47.9042969,36.7197266z M36.3134766,53.25c0,1.2402344-1.0097656,2.25-2.25,2.25
		h-7.328125c-1.2407227,0-2.25-1.0097656-2.25-2.25V21.2192383c0-1.2407227,1.0092773-2.25,2.25-2.25h7.328125
		c1.2402344,0,2.25,1.0092773,2.25,2.25V53.25z"/>
	<path d="M30.3994141,32.5029297c-2.5107422,0-4.5537109,2.0429688-4.5537109,4.5546875
		c0,2.5107422,2.0429688,4.5537109,4.5537109,4.5537109s4.5537109-2.0429688,4.5537109-4.5537109
		C34.953125,34.5458984,32.9101562,32.5029297,30.3994141,32.5029297z M30.3994141,40.1113281
		c-1.6835938,0-3.0537109-1.3701172-3.0537109-3.0537109c0-1.6845703,1.3701172-3.0546875,3.0537109-3.0546875
		s3.0537109,1.3701172,3.0537109,3.0546875C33.453125,38.7412109,32.0830078,40.1113281,30.3994141,40.1113281z"/>
	<path d="M30.3994141,34.5566406c-1.3789062,0-2.5004883,1.1220703-2.5004883,2.5009766s1.121582,2.5,2.5004883,2.5
		s2.5009766-1.1210938,2.5009766-2.5S31.7783203,34.5566406,30.3994141,34.5566406z M30.3994141,38.0576172
		c-0.5517578,0-1.0004883-0.4482422-1.0004883-1s0.4487305-1.0009766,1.0004883-1.0009766s1.0009766,0.4492188,1.0009766,1.0009766
		S30.9511719,38.0576172,30.3994141,38.0576172z"/>
	<circle cx="27.2498779" cy="21.651123" r="1"/>
</g>
</svg>
