<?xml version="1.0" encoding="utf-8"?>
<!-- Generator: Adobe Illustrator 19.2.1, SVG Export Plug-In . SVG Version: 6.00 Build 0)  -->
<svg version="1.1" id="Layer_1" xmlns="http://www.w3.org/2000/svg" xmlns:xlink="http://www.w3.org/1999/xlink" x="0px" y="0px"
	 viewBox="0 0 60 60" style="enable-background:new 0 0 60 60;" xml:space="preserve">
<g>
	<g>
		<path d="M5.9125977,50.8701172c0.3007812,0.3251953,0.4511719,0.8085938,0.4511719,1.4501953
			c0,0.6445312-0.1513672,1.1298828-0.4536133,1.4580078c-0.3027344,0.3271484-0.7421875,0.4912109-1.3188477,0.4912109H3.3828125
			v-3.8886719h1.2138672C5.1733398,50.3808594,5.6118164,50.5439453,5.9125977,50.8701172z M5.418457,53.3486328
			c0.1860352-0.2314453,0.2792969-0.5742188,0.2792969-1.0283203c0-0.9101562-0.3725586-1.3642578-1.1171875-1.3642578H4.0273438
			v2.7392578h0.5585938C4.9545898,53.6953125,5.2324219,53.5791016,5.418457,53.3486328z"/>
		<path d="M9.3178711,51.3535156L8.394043,54.1621094c-0.1040039,0.3193359-0.2714844,0.5810547-0.5019531,0.7871094
			c-0.2314453,0.2060547-0.543457,0.3730469-0.9375,0.5019531l-0.2148438-0.5371094
			c0.2504883-0.0888672,0.4501953-0.1835938,0.5986328-0.2822266c0.1489258-0.0976562,0.2680664-0.2167969,0.3574219-0.3564453
			l-0.972168-2.921875h0.6499023l0.6552734,2.234375l0.6445312-2.234375H9.3178711z"/>
		<path d="M11.9443359,51.5332031c0.1538086,0.1660156,0.230957,0.4003906,0.230957,0.7011719v2.0351562h-0.6337891v-1.9550781
			c0-0.2900391-0.1591797-0.4345703-0.4780273-0.4345703c-0.2114258,0-0.4082031,0.0732422-0.5908203,0.2197266v2.1699219H9.8388672
			v-2.9160156h0.574707v0.3544922c0.2397461-0.2832031,0.5336914-0.4248047,0.8808594-0.4248047
			C11.5737305,51.2832031,11.7905273,51.3662109,11.9443359,51.5332031z"/>
		<path d="M14.7617188,51.5302734c0.1948242,0.1650391,0.2924805,0.3994141,0.2924805,0.7041016v2.0351562h-0.5693359v-0.4082031
			c-0.1826172,0.3115234-0.4707031,0.4677734-0.8647461,0.4677734c-0.2827148,0-0.5014648-0.0771484-0.6552734-0.2314453
			c-0.1538086-0.1533203-0.230957-0.3681641-0.230957-0.6445312c0-0.3466797,0.1352539-0.6025391,0.4057617-0.765625
			c0.2700195-0.1621094,0.6987305-0.2460938,1.2861328-0.2490234v-0.1347656c0-0.3007812-0.1953125-0.4511719-0.5854492-0.4511719
			c-0.2290039,0-0.456543,0.0507812-0.6821289,0.1503906l-0.1611328-0.4941406
			c0.3115234-0.1503906,0.628418-0.2255859,0.9506836-0.2255859C14.2949219,51.2832031,14.5664062,51.3662109,14.7617188,51.5302734
			z M14.4257812,53.4853516v-0.6123047c-0.3759766,0.0078125-0.6499023,0.0527344-0.8217773,0.1367188
			c-0.171875,0.0849609-0.2578125,0.2158203-0.2578125,0.3955078c0,0.2539062,0.1430664,0.3808594,0.4296875,0.3808594
			C14.0302734,53.7861328,14.246582,53.6865234,14.4257812,53.4853516z"/>
		<path d="M19.5766602,51.5332031c0.1503906,0.1660156,0.2255859,0.4003906,0.2255859,0.7011719v2.0351562H19.168457v-1.9550781
			c0-0.2900391-0.1503906-0.4345703-0.4511719-0.4345703c-0.1040039,0-0.2016602,0.0175781-0.2924805,0.0537109
			c-0.0917969,0.0351562-0.1835938,0.0927734-0.2768555,0.171875v0.1289062v2.0351562h-0.6337891v-1.9550781
			c0-0.2900391-0.1503906-0.4345703-0.4511719-0.4345703c-0.1040039,0-0.2016602,0.0175781-0.2924805,0.0537109
			c-0.0917969,0.0351562-0.1855469,0.0908203-0.2822266,0.1660156v2.1699219h-0.6337891v-2.9160156h0.574707v0.3544922
			c0.2397461-0.2832031,0.5283203-0.4248047,0.8647461-0.4248047c0.1826172,0,0.340332,0.0400391,0.4726562,0.1210938
			c0.1323242,0.0800781,0.230957,0.1943359,0.2954102,0.3408203c0.2470703-0.3076172,0.5424805-0.4619141,0.8862305-0.4619141
			C19.2167969,51.2832031,19.4262695,51.3662109,19.5766602,51.5332031z"/>
		<path d="M20.6533203,50.8320312c-0.0693359-0.0673828-0.1044922-0.1591797-0.1044922-0.2734375
			c0-0.1220703,0.0341797-0.2158203,0.1020508-0.2822266s0.1645508-0.0996094,0.2900391-0.0996094
			c0.121582,0,0.2172852,0.0341797,0.2875977,0.1025391c0.0693359,0.0673828,0.1044922,0.1591797,0.1044922,0.2734375
			c0,0.1220703-0.0341797,0.2158203-0.1020508,0.2822266s-0.1645508,0.0996094-0.2900391,0.0996094
			C20.8193359,50.9345703,20.7236328,50.9003906,20.6533203,50.8320312z M20.6240234,51.3535156h0.6337891v2.9160156h-0.6337891
			V51.3535156z"/>
		<path d="M22.262207,53.9423828c-0.2397461-0.2617188-0.3598633-0.6289062-0.3598633-1.1015625
			c0-0.3115234,0.0556641-0.5839844,0.1665039-0.8193359c0.1108398-0.234375,0.2685547-0.4160156,0.4726562-0.5449219
			s0.4404297-0.1933594,0.7089844-0.1933594c0.1577148,0,0.3125,0.0224609,0.4643555,0.0673828
			c0.1523438,0.0449219,0.2856445,0.1083984,0.4003906,0.1904297l-0.230957,0.4941406
			c-0.2397461-0.1142578-0.4545898-0.171875-0.6445312-0.171875c-0.2182617,0-0.3876953,0.0830078-0.5073242,0.2470703
			c-0.1201172,0.1650391-0.1801758,0.3955078-0.1801758,0.6933594c0,0.6337891,0.2524414,0.9501953,0.7573242,0.9501953
			c0.2006836,0,0.40625-0.0556641,0.6176758-0.1660156l0.2202148,0.4882812
			c-0.2329102,0.171875-0.5229492,0.2578125-0.8701172,0.2578125C22.840332,54.3339844,22.5019531,54.203125,22.262207,53.9423828z"
			/>
		<path d="M26.1103516,53.8261719c-0.3095703-0.3378906-0.4643555-0.8115234-0.4643555-1.4199219
			c0-0.4267578,0.0708008-0.796875,0.2124023-1.1123047c0.1411133-0.3144531,0.34375-0.5576172,0.6064453-0.7275391
			c0.2636719-0.1699219,0.5722656-0.2548828,0.9267578-0.2548828c0.1933594,0,0.3823242,0.0253906,0.5664062,0.0771484
			c0.1845703,0.0527344,0.3486328,0.125,0.4916992,0.2177734l-0.2202148,0.5
			c-0.2827148-0.1396484-0.565918-0.2099609-0.8486328-0.2099609c-0.340332,0-0.6035156,0.1269531-0.7895508,0.3818359
			c-0.1860352,0.2539062-0.2792969,0.6142578-0.2792969,1.0791016c0,0.4589844,0.0957031,0.8037109,0.2875977,1.0371094
			c0.1914062,0.2324219,0.4750977,0.3486328,0.8510742,0.3486328c0.3222656,0,0.5927734-0.0625,0.8110352-0.1875
			l0.2202148,0.4882812c-0.1147461,0.0898438-0.2661133,0.1601562-0.4536133,0.2119141
			c-0.1884766,0.0527344-0.3916016,0.078125-0.6098633,0.078125C26.8564453,54.3339844,26.4204102,54.1650391,26.1103516,53.8261719
			z"/>
		<path d="M30.7431641,51.3642578l-0.1289062,0.6015625c-0.1074219-0.0361328-0.2236328-0.0537109-0.3491211-0.0537109
			c-0.1289062,0-0.2382812,0.0234375-0.3276367,0.0693359c-0.0893555,0.046875-0.168457,0.1220703-0.2363281,0.2255859v2.0625
			h-0.6337891v-2.9160156h0.574707v0.4453125c0.1860352-0.3359375,0.4423828-0.5048828,0.7680664-0.5048828
			C30.5356445,51.2939453,30.6464844,51.3173828,30.7431641,51.3642578z"/>
		<path d="M33.5146484,51.3535156l-0.9238281,2.8085938c-0.1035156,0.3193359-0.2714844,0.5810547-0.5019531,0.7871094
			c-0.2314453,0.2060547-0.5429688,0.3730469-0.9375,0.5019531l-0.2148438-0.5371094
			c0.2509766-0.0888672,0.4501953-0.1835938,0.5986328-0.2822266c0.1494141-0.0976562,0.2685547-0.2167969,0.3574219-0.3564453
			l-0.972168-2.921875h0.6499023l0.6552734,2.234375l0.6445312-2.234375H33.5146484z"/>
		<path d="M34.2158203,54.2587891c-0.1845703-0.0498047-0.3466797-0.1201172-0.4863281-0.2089844l0.2207031-0.515625
			c0.2646484,0.1611328,0.5439453,0.2412109,0.8378906,0.2412109c0.34375,0,0.515625-0.1074219,0.515625-0.3222656
			c0-0.0859375-0.0302734-0.1552734-0.0888672-0.2089844c-0.0595703-0.0537109-0.1533203-0.0966797-0.2822266-0.1289062
			l-0.3808594-0.0917969c-0.2685547-0.0605469-0.4648438-0.15625-0.5888672-0.2871094
			c-0.1230469-0.1308594-0.1845703-0.3085938-0.1845703-0.5341797c0-0.2871094,0.09375-0.5107422,0.28125-0.671875
			c0.1884766-0.1611328,0.4541016-0.2412109,0.7978516-0.2412109c0.171875,0,0.34375,0.0214844,0.515625,0.0644531
			s0.328125,0.1015625,0.4677734,0.1767578l-0.2421875,0.5107422c-0.25-0.1289062-0.5009766-0.1933594-0.7519531-0.1933594
			c-0.3076172,0-0.4619141,0.0986328-0.4619141,0.2949219c0,0.0791016,0.0302734,0.1445312,0.0917969,0.1962891
			c0.0605469,0.0517578,0.1552734,0.09375,0.2841797,0.1259766l0.3818359,0.0917969
			c0.2714844,0.0644531,0.46875,0.1630859,0.5908203,0.2949219c0.1210938,0.1328125,0.1826172,0.3134766,0.1826172,0.5429688
			c0,0.296875-0.0986328,0.5283203-0.2958984,0.6923828c-0.1962891,0.1650391-0.4746094,0.2470703-0.8320312,0.2470703
			C34.5908203,54.3339844,34.4003906,54.3095703,34.2158203,54.2587891z"/>
		<path d="M36.6464844,53.3623047v-1.4609375h-0.4619141v-0.5478516h0.4619141v-0.8115234h0.6337891v0.8115234h0.8164062v0.5478516
			h-0.8164062v1.3535156c0,0.171875,0.0351562,0.2958984,0.1044922,0.3730469
			c0.0703125,0.0771484,0.1835938,0.1152344,0.3408203,0.1152344c0.1005859,0,0.2041016-0.0136719,0.3115234-0.0429688
			l0.0966797,0.5371094C37.9726562,54.2880859,37.8027344,54.3125,37.6240234,54.3125
			C36.9716797,54.3125,36.6464844,53.9960938,36.6464844,53.3623047z"/>
		<path d="M40.4414062,51.5302734c0.1943359,0.1650391,0.2919922,0.3994141,0.2919922,0.7041016v2.0351562h-0.5693359v-0.4082031
			c-0.1826172,0.3115234-0.4707031,0.4677734-0.8642578,0.4677734c-0.2832031,0-0.5019531-0.0771484-0.6552734-0.2314453
			c-0.1542969-0.1533203-0.2314453-0.3681641-0.2314453-0.6445312c0-0.3466797,0.1357422-0.6025391,0.40625-0.765625
			c0.2695312-0.1621094,0.6982422-0.2460938,1.2861328-0.2490234v-0.1347656c0-0.3007812-0.1953125-0.4511719-0.5859375-0.4511719
			c-0.2285156,0-0.4560547,0.0507812-0.6816406,0.1503906l-0.1611328-0.4941406
			c0.3115234-0.1503906,0.6279297-0.2255859,0.9501953-0.2255859
			C39.9746094,51.2832031,40.2460938,51.3662109,40.4414062,51.5302734z M40.1054688,53.4853516v-0.6123047
			c-0.3759766,0.0078125-0.6503906,0.0527344-0.8222656,0.1367188c-0.171875,0.0849609-0.2578125,0.2158203-0.2578125,0.3955078
			c0,0.2539062,0.1435547,0.3808594,0.4296875,0.3808594C39.7099609,53.7861328,39.9257812,53.6865234,40.1054688,53.4853516z"/>
		<path d="M41.5234375,53.5664062v-3.4326172h0.6337891v3.3144531c0,0.0996094,0.0214844,0.1738281,0.0644531,0.2197266
			c0.0429688,0.046875,0.1103516,0.0703125,0.2041016,0.0703125c0.0537109,0,0.1201172-0.0058594,0.1982422-0.0166016
			l0.0429688,0.5371094c-0.1289062,0.0322266-0.2646484,0.0488281-0.4082031,0.0488281
			C41.7685547,54.3076172,41.5234375,54.0605469,41.5234375,53.5664062z"/>
		<path d="M44.6679688,53.8261719c-0.3095703-0.3378906-0.4648438-0.8115234-0.4648438-1.4199219
			c0-0.4267578,0.0712891-0.796875,0.2128906-1.1123047c0.140625-0.3144531,0.34375-0.5576172,0.6064453-0.7275391
			c0.2636719-0.1699219,0.5722656-0.2548828,0.9267578-0.2548828c0.1933594,0,0.3818359,0.0253906,0.5664062,0.0771484
			c0.1845703,0.0527344,0.3486328,0.125,0.4912109,0.2177734l-0.2197266,0.5
			c-0.2832031-0.1396484-0.5664062-0.2099609-0.8486328-0.2099609c-0.3408203,0-0.6035156,0.1269531-0.7900391,0.3818359
			c-0.1855469,0.2539062-0.2792969,0.6142578-0.2792969,1.0791016c0,0.4589844,0.0957031,0.8037109,0.2880859,1.0371094
			c0.1914062,0.2324219,0.4746094,0.3486328,0.8505859,0.3486328c0.3222656,0,0.5927734-0.0625,0.8115234-0.1875
			l0.2197266,0.4882812c-0.1142578,0.0898438-0.265625,0.1601562-0.453125,0.2119141
			c-0.1884766,0.0527344-0.3916016,0.078125-0.6103516,0.078125C45.4140625,54.3339844,44.9775391,54.1650391,44.6679688,53.8261719
			z"/>
		<path d="M47.6621094,53.953125c-0.2177734-0.2578125-0.3271484-0.6376953-0.3271484-1.1386719
			c0-0.5019531,0.1103516-0.8818359,0.3300781-1.1416016c0.2207031-0.2597656,0.5341797-0.3896484,0.9423828-0.3896484
			s0.7216797,0.1298828,0.9404297,0.3896484C49.765625,51.9326172,49.875,52.3125,49.875,52.8144531
			c0,0.5009766-0.109375,0.8808594-0.3300781,1.1386719c-0.2197266,0.2578125-0.5341797,0.3867188-0.9423828,0.3867188
			S47.8808594,54.2109375,47.6621094,53.953125z M49.0693359,53.5341797c0.1044922-0.1611328,0.15625-0.4013672,0.15625-0.7197266
			c0-0.6416016-0.2060547-0.9619141-0.6181641-0.9619141c-0.4150391,0-0.6230469,0.3203125-0.6230469,0.9619141
			c0,0.3183594,0.0517578,0.5585938,0.15625,0.7197266c0.1035156,0.1611328,0.2578125,0.2412109,0.4619141,0.2412109
			C48.8095703,53.7753906,48.9658203,53.6953125,49.0693359,53.5341797z"/>
		<path d="M50.5195312,53.5664062v-3.4326172h0.6337891v3.3144531c0,0.0996094,0.0214844,0.1738281,0.0644531,0.2197266
			c0.0429688,0.046875,0.1113281,0.0703125,0.2041016,0.0703125c0.0537109,0,0.1201172-0.0058594,0.1992188-0.0166016
			l0.0429688,0.5371094c-0.1289062,0.0322266-0.265625,0.0488281-0.4082031,0.0488281
			C50.7646484,54.3076172,50.5195312,54.0605469,50.5195312,53.5664062z"/>
		<path d="M52.3408203,53.953125c-0.21875-0.2578125-0.328125-0.6376953-0.328125-1.1386719
			c0-0.5019531,0.1103516-0.8818359,0.3300781-1.1416016c0.2207031-0.2597656,0.5351562-0.3896484,0.9433594-0.3896484
			s0.7216797,0.1298828,0.9394531,0.3896484c0.21875,0.2597656,0.328125,0.6396484,0.328125,1.1416016
			c0,0.5009766-0.1103516,0.8808594-0.3310547,1.1386719c-0.2197266,0.2578125-0.5341797,0.3867188-0.9423828,0.3867188
			S52.5585938,54.2109375,52.3408203,53.953125z M53.7480469,53.5341797
			c0.1035156-0.1611328,0.1552734-0.4013672,0.1552734-0.7197266c0-0.6416016-0.2060547-0.9619141-0.6171875-0.9619141
			c-0.4160156,0-0.6230469,0.3203125-0.6230469,0.9619141c0,0.3183594,0.0517578,0.5585938,0.1552734,0.7197266
			c0.1044922,0.1611328,0.2578125,0.2412109,0.4619141,0.2412109
			C53.4882812,53.7753906,53.6435547,53.6953125,53.7480469,53.5341797z"/>
		<path d="M56.8847656,51.3642578l-0.1289062,0.6015625c-0.1074219-0.0361328-0.2236328-0.0537109-0.3496094-0.0537109
			c-0.1289062,0-0.2382812,0.0234375-0.3271484,0.0693359c-0.0898438,0.046875-0.1689453,0.1220703-0.2363281,0.2255859v2.0625
			h-0.6337891v-2.9160156h0.5742188v0.4453125c0.1865234-0.3359375,0.4423828-0.5048828,0.7685547-0.5048828
			C56.6767578,51.2939453,56.7880859,51.3173828,56.8847656,51.3642578z"/>
	</g>
</g>
<g>
	<path d="M31.4140625,3.0019531c-11.5288086,0-14.2290039,6.9980469-14.6533203,8.4008789
		c-0.8041992,2.6582031-0.4980469,5.4238281,0.8613281,7.7871094c1.5043945,2.6157227,4.1503906,4.5400391,7.2597656,5.2783203
		c0.2353516,0.0561523,0.4731445,0.1064453,0.7109375,0.1567383c1.0498047,0.2226562,2.0410156,0.4321289,2.7177734,1.1337891
		c0.7670898,0.7958984,1.1308594,1.7744141,1.0512695,2.8300781c-0.097168,1.293457-0.8549805,2.6005859-2.0258789,3.4960938
		c-1.0966797,0.8378906-2.4536133,1.2773438-3.7495117,1.6552734l-0.5512695,0.1552734
		c-1.8583984,0.515625-4.6665039,1.2949219-4.2495117,4.4082031c0.5825195,4.3535156,6.2714844,4.6982422,9.5239258,4.6982422
		c0.3413086,0,0.65625-0.0039062,0.9350586-0.0068359c0.7749023-0.0087891,1.565918-0.0537109,2.3500977-0.1318359
		c12.2861328-1.2236328,18.5458984-9.0537109,20.1728516-15.387207c0.3789062-1.4790039,0.5712891-3.0029297,0.5712891-4.5292969
		C52.3388672,10.2714844,44.7119141,3.0019531,31.4140625,3.0019531z M50.3144531,27.1035156
		c-1.5068359,5.8642578-7.3525391,13.1201172-18.8681641,14.2675781c-0.7412109,0.0742188-1.487793,0.1152344-2.2197266,0.1240234
		c-4.1865234,0.0576172-8.5419922-0.3115234-8.9545898-3.390625c-0.2265625-1.6953125,1.0439453-2.1748047,3.1640625-2.7636719
		l0.5708008-0.1611328c1.4316406-0.4169922,2.9379883-0.9082031,4.2402344-1.9033203
		c1.5053711-1.1513672,2.4814453-2.8613281,2.6108398-4.574707c0.1123047-1.4946289-0.3950195-2.8720703-1.4677734-3.9838867
		c-0.9960938-1.0327148-2.3193359-1.3129883-3.4863281-1.5600586c-0.2260742-0.0478516-0.4516602-0.0957031-0.675293-0.1484375
		c-2.7084961-0.6435547-5.0073242-2.3081055-6.3061523-4.5673828c-1.1679688-2.0302734-1.4189453-4.3139648-0.7260742-6.6044922
		c0.3706055-1.2250977,2.7485352-7.3354492,13.2177734-7.3354492c12.3447266,0,19.4248047,6.7226562,19.4248047,18.4448242
		C50.8388672,24.3476562,50.6621094,25.7460938,50.3144531,27.1035156z"/>
	<path d="M28.1689453,5.9121094c-2.3579102,0-4.2758789,1.9179688-4.2758789,4.2753906s1.9179688,4.2753906,4.2758789,4.2753906
		c2.3574219,0,4.2753906-1.9179688,4.2753906-4.2753906S30.5263672,5.9121094,28.1689453,5.9121094z M28.1689453,12.9628906
		c-1.5307617,0-2.7758789-1.2451172-2.7758789-2.7753906s1.2451172-2.7753906,2.7758789-2.7753906
		c1.5302734,0,2.7753906,1.2451172,2.7753906,2.7753906S29.6992188,12.9628906,28.1689453,12.9628906z"/>
	<path d="M44.3496094,14.3945312c0-2.3579102-1.9179688-4.2758789-4.2753906-4.2758789s-4.2753906,1.9179688-4.2753906,4.2758789
		c0,2.3574219,1.9179688,4.2753906,4.2753906,4.2753906S44.3496094,16.7519531,44.3496094,14.3945312z M40.0742188,17.1699219
		c-1.5302734,0-2.7753906-1.2451172-2.7753906-2.7753906c0-1.5307617,1.2451172-2.7758789,2.7753906-2.7758789
		s2.7753906,1.2451172,2.7753906,2.7758789C42.8496094,15.9248047,41.6044922,17.1699219,40.0742188,17.1699219z"/>
	<path d="M40.1240234,25.5039062c0,2.3574219,1.9179688,4.2753906,4.2753906,4.2753906s4.2753906-1.9179688,4.2753906-4.2753906
		c0-2.3579102-1.9179688-4.2758789-4.2753906-4.2758789S40.1240234,23.1459961,40.1240234,25.5039062z M47.1748047,25.5039062
		c0,1.5302734-1.2451172,2.7753906-2.7753906,2.7753906s-2.7753906-1.2451172-2.7753906-2.7753906
		c0-1.5307617,1.2451172-2.7758789,2.7753906-2.7758789S47.1748047,23.9731445,47.1748047,25.5039062z"/>
	<path d="M14.003418,21.8203125H8.8549805c-0.4140625,0-0.75,0.3359375-0.75,0.75
		c0,16.8867188,1.8076172,20.4316406,3.3242188,20.4316406s3.3242188-3.5449219,3.3242188-20.4316406
		C14.753418,22.15625,14.4174805,21.8203125,14.003418,21.8203125z M11.4291992,41.3798828
		c-0.6020508-0.9072266-1.7783203-5.3242188-1.8227539-18.0595703h3.6455078
		C13.2075195,36.0556641,12.03125,40.4726562,11.4291992,41.3798828z"/>
	<path d="M13.9658203,15.8798828H8.8920898c-0.4086914,0-0.7416992,0.3266602-0.75,0.7353516
		c-0.0239258,1.2197266-0.0371094,2.4921875-0.0371094,3.8203125c0,0.4140625,0.3359375,0.75,0.75,0.75h5.1484375
		c0.4140625,0,0.75-0.3359375,0.75-0.75c0-1.328125-0.0131836-2.6005859-0.0375977-3.8208008
		C14.7075195,16.206543,14.3740234,15.8798828,13.9658203,15.8798828z M9.6064453,19.6855469
		c0.0029297-0.7885742,0.0107422-1.5566406,0.0224609-2.3056641h3.6000977
		c0.012207,0.7490234,0.0200195,1.5170898,0.0229492,2.3056641H9.6064453z"/>
	<path d="M12.324707,5.0219727c-0.3256836-0.390625-0.6831055-0.8198242-1.0688477-1.2954102
		c-0.2231445-0.2758789-0.609375-0.359375-0.9257812-0.1943359c-0.315918,0.1625977-0.4746094,0.5244141-0.3793945,0.8666992
		c0.4545898,1.640625-0.3735352,2.871582-1.2885742,4.2314453c-0.6147461,0.9130859-0.9394531,1.9458008-0.9394531,2.9858398
		c0,2.0014648,1.6279297,3.6293945,3.6293945,3.6293945c1.949707,0,3.3613281-1.394043,3.5961914-3.5512695
		c0.2348633-2.1625977-0.3061523-3.8310547-1.8686523-5.7587891C12.8520508,5.6547852,12.5996094,5.3520508,12.324707,5.0219727z
		 M13.4570312,11.5322266c-0.0566406,0.5195312-0.3759766,2.2133789-2.1049805,2.2133789
		c-1.1743164,0-2.1293945-0.9550781-2.1293945-2.1293945c0-0.7407227,0.2363281-1.4838867,0.7216797-2.2050781
		c0.1060791-0.1575317,0.2156982-0.3248291,0.324707-0.4915161c0.848877-0.0349121,2.0971069,0.1066895,3.1535034,0.9884033
		C13.506897,10.4194946,13.5202637,10.9503174,13.4570312,11.5322266z"/>
</g>
</svg>
